<svg width="20" height="20" viewBox="0 0 20 20" fill="none" xmlns="http://www.w3.org/2000/svg">
<path d="M10.0004 5.49738C7.99901 8.33087 6.00045 11.1664 3.99919 14H16.002C14.0007 11.1663 12.0012 8.33143 10.0004 5.49738Z" fill="#DAD5C8"/>
<path d="M10.8174 4.92065C10.63 4.65526 10.3254 4.49742 10.0006 4.49738C9.67571 4.49733 9.37108 4.6551 9.18365 4.92044C8.1519 6.38113 7.11866 7.84554 6.0856 9.30969C5.11725 10.6821 4.14905 12.0544 3.18237 13.4231C2.96683 13.7283 2.9394 14.1282 3.11125 14.46C3.2831 14.7917 3.62556 15 3.99919 15H16.002C16.3756 15 16.718 14.7917 16.8899 14.46C17.0617 14.1282 17.0343 13.7283 16.8188 13.4231C15.6314 11.7419 14.4449 10.0606 13.2583 8.37909C12.4448 7.22637 11.6313 6.07356 10.8174 4.92065Z" stroke="#454340" stroke-opacity="0.78" stroke-width="2" stroke-linejoin="round"/>
</svg>
