<svg width="48" height="14" viewBox="0 0 48 14" fill="none" xmlns="http://www.w3.org/2000/svg">
<rect width="48" height="14" rx="2" fill="#5B817D"/>
<path d="M7.71199 6.583C7.35899 6.397 6.91199 6.221 6.37899 6.059C5.89499 5.917 5.52499 5.781 5.27799 5.656C5.05299 5.543 4.90099 5.423 4.82499 5.298C4.74899 5.172 4.70999 5.01 4.70999 4.818C4.70999 4.516 4.81899 4.294 5.04399 4.139C5.28899 3.971 5.60899 3.886 5.99799 3.886C6.31499 3.886 6.61599 3.94 6.89199 4.047C7.17099 4.154 7.46299 4.328 7.75699 4.563L7.90499 4.68L8.78499 3.698L8.64199 3.563C8.25799 3.205 7.85499 2.935 7.44299 2.763C7.02899 2.59 6.52599 2.501 5.94999 2.501C5.41899 2.501 4.93699 2.599 4.51699 2.792C4.08999 2.987 3.75199 3.265 3.50999 3.619C3.26799 3.974 3.14599 4.382 3.14599 4.831C3.14599 5.495 3.36599 6.03 3.79899 6.422C4.21099 6.796 4.86299 7.117 5.73699 7.377C6.20099 7.512 6.55599 7.647 6.79499 7.778C7.01499 7.9 7.16999 8.033 7.25399 8.176C7.33899 8.317 7.38199 8.503 7.38199 8.728C7.38199 9.128 7.24399 9.422 6.96099 9.627C6.66099 9.844 6.27299 9.954 5.80699 9.954C5.41099 9.954 5.04799 9.889 4.72999 9.759C4.40399 9.626 4.07799 9.428 3.75899 9.17L3.61199 9.05L2.73499 10.027L2.86699 10.161C3.63099 10.941 4.62399 11.337 5.81799 11.337C6.45199 11.337 7.01099 11.227 7.47999 11.011C7.95699 10.791 8.32799 10.48 8.58399 10.087C8.83999 9.693 8.96999 9.234 8.96999 8.724C8.96999 8.198 8.85199 7.753 8.61799 7.401C8.38799 7.055 8.08399 6.78 7.71199 6.583Z" fill="white"/>
<path d="M16.702 4.445C16.257 4.445 15.863 4.555 15.531 4.772C15.294 4.927 15.071 5.133 14.864 5.387C14.733 5.143 14.558 4.941 14.342 4.783C14.032 4.559 13.655 4.445 13.223 4.445C12.568 4.445 12.005 4.704 11.545 5.216L11.482 4.613H10.155V11.338H11.659V6.709C11.877 6.375 12.083 6.123 12.273 5.962C12.454 5.808 12.673 5.734 12.947 5.734C13.135 5.734 13.635 5.734 13.635 6.758V11.338H15.14V6.709C15.364 6.368 15.574 6.115 15.763 5.957C15.944 5.807 16.161 5.733 16.427 5.733C16.747 5.733 17.115 5.849 17.115 6.757V11.337H18.619V6.585C18.619 5.942 18.444 5.421 18.1 5.037C17.75 4.644 17.279 4.445 16.702 4.445Z" fill="white"/>
<path d="M22.438 4.445C21.746 4.445 20.988 4.592 20.186 4.883L20.001 4.95L20.404 6.121L20.592 6.058C21.827 5.646 22.725 5.639 23.097 5.965C23.267 6.112 23.353 6.378 23.353 6.754V7.012H22.582C21.655 7.012 20.923 7.203 20.405 7.581C19.869 7.972 19.597 8.538 19.597 9.263C19.597 9.875 19.799 10.379 20.199 10.762C20.595 11.143 21.138 11.337 21.813 11.337C22.49 11.337 23.044 11.174 23.467 10.851L23.516 11.337H24.857V6.753C24.857 6.026 24.651 5.454 24.246 5.051C23.841 4.648 23.233 4.445 22.438 4.445ZM23.354 8.146V9.294C23.033 9.835 22.611 10.098 22.066 10.098C21.763 10.098 21.537 10.025 21.392 9.879C21.247 9.734 21.174 9.504 21.174 9.198C21.174 8.747 21.335 8.147 22.726 8.147H23.354V8.146Z" fill="white"/>
<path d="M29.066 4.445C28.634 4.445 28.252 4.587 27.927 4.866C27.773 4.999 27.634 5.161 27.511 5.352L27.448 4.613H26.117V11.338H27.621L27.616 7.488C27.744 6.901 27.921 6.467 28.14 6.198C28.437 5.832 28.891 5.76 29.437 5.896L29.639 5.946L29.924 4.56L29.734 4.517C29.529 4.469 29.304 4.445 29.066 4.445Z" fill="white"/>
<path d="M34.279 9.821C33.726 10.119 33.261 10.1 33.108 9.907C33.023 9.802 32.978 9.604 32.978 9.335V5.854H34.333L34.508 4.613H32.978V3.029L31.473 3.208V4.613H30.37V5.854H31.474V9.38C31.474 10.002 31.645 10.489 31.983 10.828C32.32 11.166 32.79 11.338 33.379 11.338C33.945 11.338 34.459 11.185 34.906 10.883L35.062 10.778L34.449 9.73L34.279 9.821Z" fill="white"/>
<path d="M37.893 2.579H36.353V11.338H37.893V2.579Z" fill="white"/>
<path d="M44.319 9.308C44.036 9.515 43.765 9.677 43.514 9.791C43.278 9.899 42.994 9.953 42.673 9.953C42.043 9.953 41.553 9.721 41.173 9.242C40.788 8.757 40.593 7.977 40.593 6.925C40.593 5.844 40.789 5.055 41.177 4.581C41.561 4.113 42.054 3.885 42.685 3.885C43.196 3.885 43.69 4.076 44.155 4.452L44.307 4.576L45.185 3.536L45.036 3.407C44.669 3.091 44.301 2.858 43.941 2.717C43.579 2.573 43.131 2.501 42.613 2.501C41.938 2.501 41.317 2.674 40.768 3.016C40.216 3.359 39.776 3.871 39.456 4.537C39.141 5.197 38.98 5.996 38.98 6.912C38.98 7.83 39.134 8.628 39.437 9.285C39.745 9.953 40.181 10.468 40.736 10.815C41.29 11.161 41.929 11.336 42.636 11.336C43.181 11.336 43.673 11.239 44.098 11.047C44.52 10.857 44.872 10.614 45.146 10.326L45.264 10.201L44.474 9.193L44.319 9.308Z" fill="white"/>
</svg>
