<svg width="20" height="14" viewBox="0 0 20 14" fill="none" xmlns="http://www.w3.org/2000/svg">
<rect width="20" height="14" rx="2" fill="#5B817D"/>
<path d="M7.953 6.575C7.6 6.389 7.153 6.213 6.62 6.051C6.137 5.908 5.767 5.773 5.52 5.648C5.29501 5.535 5.143 5.414 5.067 5.29C4.991 5.163 4.95101 5.002 4.95101 4.81C4.95101 4.508 5.06 4.286 5.285 4.131C5.53 3.963 5.85 3.878 6.239 3.878C6.556 3.878 6.85701 3.932 7.13301 4.039C7.412 4.146 7.704 4.32 7.998 4.555L8.146 4.673L9.026 3.691L8.884 3.555C8.5 3.197 8.09701 2.927 7.68501 2.755C7.27101 2.581 6.768 2.493 6.192 2.493C5.66101 2.493 5.179 2.591 4.759 2.784C4.332 2.979 3.99301 3.256 3.75201 3.61C3.51001 3.965 3.38801 4.374 3.38801 4.823C3.38801 5.487 3.60801 6.022 4.04101 6.414C4.45301 6.788 5.106 7.109 5.98001 7.369C6.44401 7.504 6.799 7.639 7.038 7.77C7.258 7.891 7.412 8.024 7.49601 8.167C7.58001 8.308 7.623 8.494 7.623 8.719C7.623 9.119 7.48501 9.413 7.20201 9.618C6.90201 9.835 6.514 9.945 6.048 9.945C5.652 9.945 5.28901 9.88 4.97101 9.75C4.64601 9.617 4.32 9.42 4.001 9.162L3.85401 9.042L2.97701 10.019L3.109 10.153C3.873 10.933 4.866 11.329 6.06 11.329C6.69401 11.329 7.25301 11.219 7.722 11.003C8.19901 10.783 8.57 10.472 8.826 10.079C9.083 9.684 9.21301 9.226 9.21301 8.716C9.21301 8.19 9.09501 7.745 8.861 7.393C8.63 7.046 8.326 6.771 7.953 6.575Z" fill="white"/>
<path d="M14.256 2.661H12.524L9.743 11.329H11.318L11.942 9.253H14.777L15.401 11.329H17.023L14.299 2.8L14.256 2.661ZM14.381 7.929H12.338L13.364 4.508L14.381 7.929Z" fill="white"/>
</svg>
