<svg width="16" height="16" viewBox="0 0 16 16" fill="none" xmlns="http://www.w3.org/2000/svg">
<rect width="16" height="16" rx="2" fill="#5B817D"/>
<path d="M11.373 10.296C10.763 9.459 10.165 8.214 9.59499 6.597C9.01099 4.943 8.28399 3.514 7.43499 2.35L7.32499 2.2L6.10899 2.968L7.28999 4.885C6.67899 6.726 6.00299 8.193 5.27999 9.246C4.54699 10.317 3.58399 11.294 2.42099 12.151L2.27899 12.255L2.98599 13.541L3.16899 13.414C5.32499 11.916 6.98999 9.655 8.12399 6.686L8.82099 8.448C9.80299 10.952 11.082 12.613 12.621 13.382L12.755 13.449L13.785 12.353L13.556 12.23C12.711 11.777 11.977 11.127 11.373 10.296Z" fill="white"/>
</svg>
