<svg width="24" height="14" viewBox="0 0 24 14" fill="none" xmlns="http://www.w3.org/2000/svg">
<rect width="24" height="14" rx="2" fill="#5B817D"/>
<path d="M4.64601 9.712C4.64601 10.074 4.61301 10.369 4.54601 10.59C4.48501 10.792 4.37601 10.967 4.21901 11.111C4.05501 11.261 3.79501 11.405 3.44901 11.54L3.26801 11.61L3.70401 12.815L3.88801 12.756C4.64801 12.514 5.22601 12.172 5.60401 11.737C5.99201 11.294 6.18801 10.632 6.18801 9.77V2.454H4.64801V9.712H4.64601Z" fill="white"/>
<path d="M12.925 9.374C12.642 9.581 12.371 9.743 12.12 9.857C11.883 9.965 11.599 10.019 11.278 10.019C10.649 10.019 10.159 9.787 9.77901 9.308C9.39401 8.823 9.19901 8.043 9.19901 6.991C9.19901 5.91 9.39501 5.121 9.78301 4.647C10.167 4.179 10.66 3.951 11.291 3.951C11.802 3.951 12.296 4.142 12.761 4.518L12.913 4.642L13.792 3.602L13.641 3.473C13.273 3.157 12.905 2.925 12.546 2.783C12.185 2.639 11.738 2.567 11.219 2.567C10.544 2.567 9.92301 2.74 9.37301 3.082C8.82201 3.426 8.38201 3.938 8.06301 4.604C7.74701 5.262 7.58701 6.061 7.58701 6.98C7.58701 7.897 7.74001 8.696 8.04301 9.353C8.35001 10.02 8.78701 10.535 9.34301 10.883C9.89701 11.229 10.536 11.404 11.243 11.404C11.788 11.404 12.28 11.307 12.705 11.115C13.128 10.924 13.48 10.681 13.752 10.393L13.87 10.268L13.081 9.26L12.925 9.374Z" fill="white"/>
<path d="M14.403 4.12H16.755V11.404H18.295V4.12H20.563L20.732 2.735H14.403V4.12Z" fill="white"/>
</svg>
