<svg width="19" height="14" viewBox="0 0 19 14" fill="none" xmlns="http://www.w3.org/2000/svg">
<rect width="19" height="14" rx="2" fill="#5B817D"/>
<path d="M9.33651 5.422C9.33651 4.512 9.02651 3.815 8.41751 3.349C7.82551 2.896 6.98551 2.666 5.92051 2.666H3.54851V11.334H5.08851V8.298H5.93251C6.94051 8.298 7.76451 8.062 8.38051 7.598C9.01551 7.12 9.33651 6.388 9.33651 5.422ZM5.08851 3.954H5.90851C6.50851 3.954 6.97051 4.074 7.28151 4.31C7.57951 4.537 7.72451 4.907 7.72451 5.44C7.72451 6.036 7.57651 6.448 7.28451 6.665C6.97251 6.894 6.50151 7.01 5.88451 7.01H5.08851V3.954Z" fill="white"/>
<path d="M13.6835 2.666H11.9525L9.17149 11.334H10.7465L11.3705 9.258H14.2055L14.8295 11.334H16.4515L13.7275 2.805L13.6835 2.666ZM13.8085 7.934H11.7655L12.7915 4.513L13.8085 7.934Z" fill="white"/>
</svg>
