<svg width="18" height="14" viewBox="0 0 18 14" fill="none" xmlns="http://www.w3.org/2000/svg">
<rect width="18" height="14" rx="2" fill="#5B817D"/>
<path d="M5.50799 2.575H3.96799V11.337H5.50799V2.575Z" fill="white"/>
<path d="M13.087 9.308C12.804 9.515 12.533 9.677 12.282 9.791C12.045 9.899 11.761 9.953 11.44 9.953C10.811 9.953 10.321 9.721 9.94099 9.242C9.55599 8.757 9.36099 7.977 9.36099 6.925C9.36099 5.844 9.55699 5.055 9.94499 4.581C10.329 4.113 10.822 3.885 11.453 3.885C11.964 3.885 12.458 4.076 12.923 4.452L13.075 4.576L13.954 3.536L13.803 3.407C13.435 3.091 13.067 2.859 12.708 2.717C12.347 2.573 11.9 2.501 11.381 2.501C10.706 2.501 10.085 2.674 9.53499 3.016C8.98399 3.36 8.54399 3.872 8.22499 4.538C7.90899 5.196 7.74899 5.995 7.74899 6.914C7.74899 7.831 7.90199 8.63 8.20499 9.287C8.51199 9.954 8.94899 10.469 9.50499 10.817C10.059 11.163 10.698 11.338 11.405 11.338C11.95 11.338 12.442 11.241 12.867 11.049C13.29 10.858 13.642 10.615 13.914 10.327L14.032 10.202L13.243 9.194L13.087 9.308Z" fill="white"/>
</svg>
