<svg width="21" height="21" viewBox="0 0 21 21" fill="none" xmlns="http://www.w3.org/2000/svg">
<path d="M17.5 14H3.5C1.6 14 0 12.4 0 10.5C0 8.6 1.6 7 3.5 7H17.5C19.4 7 21 8.6 21 10.5C21 12.4 19.4 14 17.5 14Z" fill="#9F9FB4"/>
<path d="M16.8 12.5C17.9046 12.5 18.8 11.6046 18.8 10.5C18.8 9.39543 17.9046 8.5 16.8 8.5C15.6954 8.5 14.8 9.39543 14.8 10.5C14.8 11.6046 15.6954 12.5 16.8 12.5Z" fill="white"/>
<path d="M10.5 12.5C11.6046 12.5 12.5 11.6046 12.5 10.5C12.5 9.39543 11.6046 8.5 10.5 8.5C9.39543 8.5 8.5 9.39543 8.5 10.5C8.5 11.6046 9.39543 12.5 10.5 12.5Z" fill="white"/>
<path d="M4.3 12.5C5.40457 12.5 6.3 11.6046 6.3 10.5C6.3 9.39543 5.40457 8.5 4.3 8.5C3.19543 8.5 2.3 9.39543 2.3 10.5C2.3 11.6046 3.19543 12.5 4.3 12.5Z" fill="white"/>
</svg>
